<mxfile host="app.diagrams.net" agent="Mozilla/5.0 (Windows NT 10.0; Win64; x64; rv:129.0) Gecko/20100101 Firefox/129.0" version="24.7.7">
  <diagram name="Page-1" id="c9db0220-8083-56f3-ca83-edcdcd058819">
    <mxGraphModel dx="2501" dy="711" grid="1" gridSize="10" guides="1" tooltips="1" connect="1" arrows="1" fold="1" page="1" pageScale="1.5" pageWidth="826" pageHeight="1169" background="#ffffff" math="0" shadow="0">
      <root>
        <mxCell id="0" style=";html=1;" />
        <mxCell id="1" style=";html=1;" parent="0" />
        <mxCell id="3d76a8aef4d5c911-1" value="" style="html=1;shadow=0;dashed=0;shape=mxgraph.bootstrap.rect;fillColor=#222222;strokeColor=none;whiteSpace=wrap;rounded=0;fontSize=12;fontColor=#000000;align=center;" parent="1" vertex="1">
          <mxGeometry x="40" y="70" width="1150" height="40" as="geometry" />
        </mxCell>
        <mxCell id="3d76a8aef4d5c911-2" value="Home" style="html=1;shadow=0;dashed=0;fillColor=none;strokeColor=none;shape=mxgraph.bootstrap.rect;fontColor=#999999;fontSize=14;whiteSpace=wrap;" parent="3d76a8aef4d5c911-1" vertex="1">
          <mxGeometry width="115" height="40" as="geometry" />
        </mxCell>
        <mxCell id="3d76a8aef4d5c911-3" value="Contact Me" style="html=1;shadow=0;dashed=0;shape=mxgraph.bootstrap.rect;fillColor=#000000;strokeColor=none;fontColor=#ffffff;spacingRight=30;whiteSpace=wrap;" parent="3d76a8aef4d5c911-1" vertex="1">
          <mxGeometry x="115" width="129.375" height="40" as="geometry" />
        </mxCell>
        <mxCell id="3d76a8aef4d5c911-5" value="&lt;div align=&quot;center&quot;&gt;&lt;span style=&quot;white-space: pre;&quot;&gt;&#x9;&lt;/span&gt;DFIR&lt;/div&gt;" style="html=1;shadow=0;dashed=0;fillColor=none;strokeColor=none;shape=mxgraph.bootstrap.rect;fontColor=#999999;spacingRight=30;whiteSpace=wrap;movable=1;resizable=1;rotatable=1;deletable=1;editable=1;locked=0;connectable=1;align=center;" parent="3d76a8aef4d5c911-1" vertex="1">
          <mxGeometry x="248.13" width="121.87" height="40" as="geometry" />
        </mxCell>
        <mxCell id="3d76a8aef4d5c911-7" value="ServiceNow" style="html=1;shadow=0;dashed=0;fillColor=none;strokeColor=none;shape=mxgraph.bootstrap.rect;fontColor=#999999;whiteSpace=wrap;" parent="3d76a8aef4d5c911-1" vertex="1">
          <mxGeometry x="370" width="115" height="40" as="geometry" />
        </mxCell>
        <mxCell id="3d76a8aef4d5c911-8" value="Art" style="html=1;shadow=0;dashed=0;fillColor=none;strokeColor=none;shape=mxgraph.bootstrap.rect;fontColor=#999999;whiteSpace=wrap;" parent="3d76a8aef4d5c911-1" vertex="1">
          <mxGeometry x="490" width="100.625" height="40" as="geometry" />
        </mxCell>
        <mxCell id="3d76a8aef4d5c911-9" value="Profile" style="html=1;shadow=0;dashed=0;fillColor=none;strokeColor=none;shape=mxgraph.bootstrap.rect;fontColor=#999999;whiteSpace=wrap;" parent="3d76a8aef4d5c911-1" vertex="1">
          <mxGeometry x="948.75" width="100.625" height="40" as="geometry" />
        </mxCell>
        <mxCell id="3d76a8aef4d5c911-10" value="Log Out" style="html=1;shadow=0;dashed=0;fillColor=none;strokeColor=none;shape=mxgraph.bootstrap.rect;fontColor=#999999;whiteSpace=wrap;" parent="3d76a8aef4d5c911-1" vertex="1">
          <mxGeometry x="1049.375" width="100.625" height="40" as="geometry" />
        </mxCell>
        <mxCell id="VjTXMUW79vmdp3_DpWTi-1" value="" style="sketch=0;aspect=fixed;pointerEvents=1;shadow=0;dashed=0;html=1;strokeColor=none;labelPosition=center;verticalLabelPosition=bottom;verticalAlign=top;align=center;fillColor=#E6E6E6;shape=mxgraph.mscae.enterprise.calendar" vertex="1" parent="3d76a8aef4d5c911-1">
          <mxGeometry x="210" y="9.5" width="25.61" height="21" as="geometry" />
        </mxCell>
        <mxCell id="3d76a8aef4d5c911-11" value="" style="html=1;shadow=0;dashed=0;shape=mxgraph.bootstrap.rrect;rSize=5;strokeColor=#dddddd;rounded=0;fontSize=12;align=center;" parent="1" vertex="1">
          <mxGeometry x="860" y="150" width="330" height="400" as="geometry" />
        </mxCell>
        <mxCell id="3d76a8aef4d5c911-12" value="320x200" style="shape=rect;fontSize=24;fillColor=#f0f0f0;strokeColor=none;fontColor=#999999;whiteSpace=wrap;" parent="3d76a8aef4d5c911-11" vertex="1">
          <mxGeometry x="5" y="5" width="320" height="200" as="geometry" />
        </mxCell>
        <mxCell id="3d76a8aef4d5c911-13" value="&lt;font style=&quot;font-size: 18px;&quot;&gt;Looking for a Pentest?&lt;/font&gt;" style="html=1;shadow=0;dashed=0;shape=mxgraph.bootstrap.anchor;fontSize=26;align=left;whiteSpace=wrap;" parent="3d76a8aef4d5c911-11" vertex="1">
          <mxGeometry x="15" y="220" width="300" height="40" as="geometry" />
        </mxCell>
        <mxCell id="3d76a8aef4d5c911-14" value="Cras justo odio, dapibus ac facilisis in, egestas eget quam. Donec id elit non mi porta gravida at eget metus. Nullam id dolor id nibh ultricies vehicula ut id elit." style="html=1;shadow=0;dashed=0;shape=mxgraph.bootstrap.anchor;strokeColor=#dddddd;whiteSpace=wrap;align=left;verticalAlign=top;fontSize=14;whiteSpace=wrap;" parent="3d76a8aef4d5c911-11" vertex="1">
          <mxGeometry x="15" y="260" width="300" height="80" as="geometry" />
        </mxCell>
        <mxCell id="3d76a8aef4d5c911-15" value="Button" style="html=1;shadow=0;dashed=0;shape=mxgraph.bootstrap.rrect;rSize=5;fontSize=16;fillColor=#3D8BCD;strokeColor=none;fontColor=#ffffff;whiteSpace=wrap;" parent="3d76a8aef4d5c911-11" vertex="1">
          <mxGeometry y="1" width="80" height="40" relative="1" as="geometry">
            <mxPoint x="15" y="-60" as="offset" />
          </mxGeometry>
        </mxCell>
        <mxCell id="3d76a8aef4d5c911-16" value="Button" style="html=1;shadow=0;dashed=0;shape=mxgraph.bootstrap.rrect;rSize=5;fontSize=16;strokeColor=#dddddd;whiteSpace=wrap;" parent="3d76a8aef4d5c911-11" vertex="1">
          <mxGeometry y="1" width="80" height="40" relative="1" as="geometry">
            <mxPoint x="100" y="-60" as="offset" />
          </mxGeometry>
        </mxCell>
        <mxCell id="3d76a8aef4d5c911-17" value="Template name" style="html=1;shadow=0;dashed=0;shape=mxgraph.bootstrap.rect;strokeColor=none;fillColor=none;fontColor=#999999;align=left;spacingLeft=5;whiteSpace=wrap;rounded=0;" parent="1" vertex="1">
          <mxGeometry x="40" y="130" width="200" height="20" as="geometry" />
        </mxCell>
        <mxCell id="3d76a8aef4d5c911-18" value="Contact Form" style="html=1;shadow=0;dashed=0;shape=mxgraph.bootstrap.rrect;rSize=5;strokeColor=#dddddd;;align=left;spacingLeft=10;fontSize=16;whiteSpace=wrap;rounded=0;" parent="1" vertex="1">
          <mxGeometry x="40" y="150" width="800" height="40" as="geometry" />
        </mxCell>
        <mxCell id="3d76a8aef4d5c911-19" value="Subject" style="html=1;shadow=0;dashed=0;shape=mxgraph.bootstrap.rect;strokeColor=none;fillColor=none;fontColor=#999999;align=left;spacingLeft=5;whiteSpace=wrap;rounded=0;" parent="1" vertex="1">
          <mxGeometry x="40" y="210" width="200" height="20" as="geometry" />
        </mxCell>
        <mxCell id="3d76a8aef4d5c911-20" value="Hello, %USER_FULL_NAME%" style="html=1;shadow=0;dashed=0;shape=mxgraph.bootstrap.rrect;rSize=5;strokeColor=#dddddd;align=left;spacingLeft=10;fontSize=16;whiteSpace=wrap;rounded=0;" parent="1" vertex="1">
          <mxGeometry x="40" y="230" width="800" height="40" as="geometry" />
        </mxCell>
        <mxCell id="3d76a8aef4d5c911-21" value="Insert System Variable" style="html=1;shadow=0;dashed=0;shape=mxgraph.bootstrap.rect;strokeColor=none;fillColor=none;align=right;fontSize=10;whiteSpace=wrap;rounded=0;" parent="1" vertex="1">
          <mxGeometry x="690" y="210" width="120" height="20" as="geometry" />
        </mxCell>
        <mxCell id="3d76a8aef4d5c911-22" value="" style="shape=triangle;strokeColor=none;fillColor=#000000;direction=south;rounded=0;shadow=1;fontSize=12;fontColor=#000000;align=center;html=1;" parent="1" vertex="1">
          <mxGeometry x="812" y="217" width="8" height="4" as="geometry" />
        </mxCell>
        <mxCell id="3d76a8aef4d5c911-23" value="Message" style="html=1;shadow=0;dashed=0;shape=mxgraph.bootstrap.rect;strokeColor=none;fillColor=none;fontColor=#999999;align=left;spacingLeft=5;whiteSpace=wrap;rounded=0;" parent="1" vertex="1">
          <mxGeometry x="40" y="290" width="200" height="20" as="geometry" />
        </mxCell>
        <mxCell id="3d76a8aef4d5c911-24" value="Hello %USER_FULL_NAME%!&#xa;&#xa;At vero eos et accusamus et iusto odio dignissimos ducimus, qui blanditiis praesentium voluptatum deleniti atque corrupti, quosdolores et quas molestias excepturi sint, obcaecati cupiditate non provident, similique sunt in culpa, qui officia deserunt mollitiaanimi, id est laborum et dolorum fuga. Et harum quidem rerum facilis est et expedita distinctio. Nam libero tempore, cum solutanobis est eligendi optio, cumque nihil impedit, quo minus id, quod maxime placeat, facere possimus, omnis voluptas assumendaest, omnis dolor repellendus." style="html=1;shadow=0;dashed=0;shape=mxgraph.bootstrap.rrect;rSize=5;fontSize=12;strokeColor=#dddddd;align=left;spacing=10;verticalAlign=top;whiteSpace=wrap;rounded=0;" parent="1" vertex="1">
          <mxGeometry x="40" y="310" width="800" height="240" as="geometry" />
        </mxCell>
        <mxCell id="3d76a8aef4d5c911-25" value="Insert System Variable" style="html=1;shadow=0;dashed=0;shape=mxgraph.bootstrap.rect;strokeColor=none;fillColor=none;align=right;fontSize=10;whiteSpace=wrap;rounded=0;" parent="1" vertex="1">
          <mxGeometry x="690" y="290" width="120" height="20" as="geometry" />
        </mxCell>
        <mxCell id="3d76a8aef4d5c911-26" value="" style="shape=triangle;strokeColor=none;fillColor=#000000;direction=south;rounded=0;shadow=1;fontSize=12;fontColor=#000000;align=center;html=1;" parent="1" vertex="1">
          <mxGeometry x="812" y="297" width="8" height="4" as="geometry" />
        </mxCell>
        <mxCell id="3d76a8aef4d5c911-27" value="%USER_FULL_NAME%&#xa;%USER_EMAIL%&#xa;%USER_PROFILE_COMPLETENESS%&#xa;%USER_NUM_SUCCESS_TRADES%&#xa;%USER_FULL_NAME%&#xa;%USER_EMAIL%&#xa;%USER_PROFILE_COMPLETENESS%&#xa;%USER_NUM_SUCCESS_SELLS%" style="html=1;shadow=0;dashed=0;shape=mxgraph.bootstrap.rrect;fontSize=12;rSize=2;strokeColor=#dddddd;align=left;verticalAlign=top;spacing=10;shadow=1;whiteSpace=wrap;rounded=0;" parent="1" vertex="1">
          <mxGeometry x="580" y="450" width="240" height="140" as="geometry" />
        </mxCell>
        <mxCell id="3d76a8aef4d5c911-28" value="Message Type" style="html=1;shadow=0;dashed=0;shape=mxgraph.bootstrap.rect;strokeColor=none;fillColor=none;fontColor=#999999;align=left;spacingLeft=5;whiteSpace=wrap;rounded=0;" parent="1" vertex="1">
          <mxGeometry x="40" y="570" width="200" height="20" as="geometry" />
        </mxCell>
        <mxCell id="3d76a8aef4d5c911-29" value="Email + Push" style="html=1;shadow=0;dashed=0;shape=mxgraph.bootstrap.rrect;rSize=5;strokeColor=#dddddd;align=left;spacingLeft=10;fontSize=16;whiteSpace=wrap;rounded=0;" parent="1" vertex="1">
          <mxGeometry x="40" y="590" width="390" height="40" as="geometry" />
        </mxCell>
        <mxCell id="3d76a8aef4d5c911-30" value="" style="shape=triangle;strokeColor=none;fillColor=#000000;direction=south;rounded=0;shadow=1;fontSize=12;fontColor=#000000;align=center;html=1;" parent="1" vertex="1">
          <mxGeometry x="410" y="607" width="10" height="5" as="geometry" />
        </mxCell>
        <mxCell id="3d76a8aef4d5c911-31" value="Tap target" style="html=1;shadow=0;dashed=0;shape=mxgraph.bootstrap.rect;strokeColor=none;fillColor=none;fontColor=#999999;align=left;spacingLeft=5;whiteSpace=wrap;rounded=0;" parent="1" vertex="1">
          <mxGeometry x="450" y="570" width="200" height="20" as="geometry" />
        </mxCell>
        <mxCell id="3d76a8aef4d5c911-32" value="Profile Screen" style="html=1;shadow=0;dashed=0;shape=mxgraph.bootstrap.rrect;rSize=5;strokeColor=#dddddd;align=left;spacingLeft=10;fontSize=16;whiteSpace=wrap;rounded=0;" parent="1" vertex="1">
          <mxGeometry x="450" y="590" width="390" height="40" as="geometry" />
        </mxCell>
        <mxCell id="3d76a8aef4d5c911-33" value="" style="shape=triangle;strokeColor=none;fillColor=#000000;direction=south;rounded=0;shadow=1;fontSize=12;fontColor=#000000;align=center;html=1;" parent="1" vertex="1">
          <mxGeometry x="820" y="607" width="10" height="5" as="geometry" />
        </mxCell>
        <mxCell id="3d76a8aef4d5c911-34" value="Send to Group" style="html=1;shadow=0;dashed=0;shape=mxgraph.bootstrap.rect;strokeColor=none;fillColor=none;fontColor=#999999;align=left;spacingLeft=5;whiteSpace=wrap;rounded=0;" parent="1" vertex="1">
          <mxGeometry x="40" y="650" width="200" height="20" as="geometry" />
        </mxCell>
        <mxCell id="3d76a8aef4d5c911-35" value="Top Management" style="html=1;shadow=0;dashed=0;shape=mxgraph.bootstrap.checkbox;fontSize=12;strokeColor=#999999;align=left;labelPosition=right;spacingLeft=5;rounded=0;" parent="1" vertex="1">
          <mxGeometry x="50" y="673" width="14" height="14" as="geometry" />
        </mxCell>
        <mxCell id="3d76a8aef4d5c911-36" value="Marketing Department" style="html=1;shadow=0;dashed=0;shape=mxgraph.bootstrap.rrect;fontSize=12;rSize=3;strokeColor=#999999;align=left;labelPosition=right;spacingLeft=5;rounded=0;" parent="1" vertex="1">
          <mxGeometry x="50" y="693" width="14" height="14" as="geometry" />
        </mxCell>
        <mxCell id="3d76a8aef4d5c911-37" value="Design Department" style="html=1;shadow=0;dashed=0;shape=mxgraph.bootstrap.checkbox;fontSize=12;strokeColor=#999999;align=left;labelPosition=right;spacingLeft=5;rounded=0;" parent="1" vertex="1">
          <mxGeometry x="50" y="713" width="14" height="14" as="geometry" />
        </mxCell>
        <mxCell id="3d76a8aef4d5c911-38" value="Financial Department" style="html=1;shadow=0;dashed=0;shape=mxgraph.bootstrap.rrect;fontSize=12;rSize=3;strokeColor=#999999;align=left;labelPosition=right;spacingLeft=5;rounded=0;" parent="1" vertex="1">
          <mxGeometry x="50" y="733" width="14" height="14" as="geometry" />
        </mxCell>
        <mxCell id="3d76a8aef4d5c911-39" value="Supply Department" style="html=1;shadow=0;dashed=0;shape=mxgraph.bootstrap.rrect;fontSize=12;rSize=3;strokeColor=#999999;align=left;labelPosition=right;spacingLeft=5;rounded=0;" parent="1" vertex="1">
          <mxGeometry x="50" y="753" width="14" height="14" as="geometry" />
        </mxCell>
        <mxCell id="3d76a8aef4d5c911-40" value="Set Type" style="html=1;shadow=0;dashed=0;shape=mxgraph.bootstrap.rect;strokeColor=none;fillColor=none;fontColor=#999999;align=left;spacingLeft=5;whiteSpace=wrap;rounded=0;" parent="1" vertex="1">
          <mxGeometry x="450" y="650" width="200" height="20" as="geometry" />
        </mxCell>
        <mxCell id="3d76a8aef4d5c911-41" value="" style="shape=ellipse;dashed=0;strokeColor=#999999;fillColor=#ffffff;html=1;rounded=0;shadow=1;fontSize=12;fontColor=#000000;align=center;" parent="1" vertex="1">
          <mxGeometry x="460" y="673" width="14" height="14" as="geometry" />
        </mxCell>
        <mxCell id="3d76a8aef4d5c911-42" value="News" style="html=1;shadow=0;dashed=0;shape=mxgraph.bootstrap.rrect;align=center;rSize=3;strokeColor=none;fillColor=#58B957;fontColor=#ffffff;fontStyle=1;fontSize=10;whiteSpace=wrap;rounded=0;" parent="1" vertex="1">
          <mxGeometry x="480" y="673" width="40" height="14" as="geometry" />
        </mxCell>
        <mxCell id="3d76a8aef4d5c911-43" value="" style="html=1;shadow=0;dashed=0;shape=mxgraph.bootstrap.radioButton;strokeColor=#999999;fillColor=#ffffff;rounded=0;fontSize=12;fontColor=#000000;align=center;" parent="1" vertex="1">
          <mxGeometry x="460" y="693" width="14" height="14" as="geometry" />
        </mxCell>
        <mxCell id="3d76a8aef4d5c911-44" value="Reports" style="html=1;shadow=0;dashed=0;shape=mxgraph.bootstrap.rrect;align=center;rSize=3;strokeColor=none;fillColor=#55BFE0;fontColor=#ffffff;fontStyle=1;fontSize=10;whiteSpace=wrap;rounded=0;" parent="1" vertex="1">
          <mxGeometry x="480" y="693" width="50" height="14" as="geometry" />
        </mxCell>
        <mxCell id="3d76a8aef4d5c911-45" value="" style="shape=ellipse;dashed=0;strokeColor=#999999;fillColor=#ffffff;html=1;rounded=0;shadow=1;fontSize=12;fontColor=#000000;align=center;" parent="1" vertex="1">
          <mxGeometry x="460" y="713" width="14" height="14" as="geometry" />
        </mxCell>
        <mxCell id="3d76a8aef4d5c911-46" value="Documents" style="html=1;shadow=0;dashed=0;shape=mxgraph.bootstrap.rrect;align=center;rSize=3;strokeColor=none;fillColor=#EFAC43;fontColor=#ffffff;fontStyle=1;fontSize=10;whiteSpace=wrap;rounded=0;" parent="1" vertex="1">
          <mxGeometry x="480" y="713" width="70" height="14" as="geometry" />
        </mxCell>
        <mxCell id="3d76a8aef4d5c911-47" value="" style="shape=ellipse;dashed=0;strokeColor=#999999;fillColor=#ffffff;html=1;rounded=0;shadow=1;fontSize=12;fontColor=#000000;align=center;" parent="1" vertex="1">
          <mxGeometry x="460" y="733" width="14" height="14" as="geometry" />
        </mxCell>
        <mxCell id="3d76a8aef4d5c911-48" value="Media" style="html=1;shadow=0;dashed=0;shape=mxgraph.bootstrap.rrect;align=center;rSize=3;strokeColor=none;fillColor=#3D8BCD;fontColor=#ffffff;fontStyle=1;fontSize=10;whiteSpace=wrap;rounded=0;" parent="1" vertex="1">
          <mxGeometry x="480" y="733" width="40" height="14" as="geometry" />
        </mxCell>
        <mxCell id="3d76a8aef4d5c911-49" value="" style="shape=ellipse;dashed=0;strokeColor=#999999;fillColor=#ffffff;html=1;rounded=0;shadow=1;fontSize=12;fontColor=#000000;align=center;" parent="1" vertex="1">
          <mxGeometry x="460" y="753" width="14" height="14" as="geometry" />
        </mxCell>
        <mxCell id="3d76a8aef4d5c911-50" value="Text" style="html=1;shadow=0;dashed=0;shape=mxgraph.bootstrap.rrect;align=center;rSize=3;strokeColor=none;fillColor=#999999;fontColor=#ffffff;fontStyle=1;fontSize=10;whiteSpace=wrap;rounded=0;" parent="1" vertex="1">
          <mxGeometry x="480" y="753" width="30" height="14" as="geometry" />
        </mxCell>
        <mxCell id="3d76a8aef4d5c911-51" value="Save Template" style="html=1;shadow=0;dashed=0;shape=mxgraph.bootstrap.rrect;align=center;rSize=5;strokeColor=none;fillColor=#3D8BCD;fontColor=#ffffff;fontSize=16;whiteSpace=wrap;rounded=0;" parent="1" vertex="1">
          <mxGeometry x="40" y="810" width="150" height="40" as="geometry" />
        </mxCell>
        <mxCell id="3d76a8aef4d5c911-52" value="Cancel" style="html=1;shadow=0;dashed=0;shape=mxgraph.bootstrap.rrect;align=center;rSize=5;strokeColor=#dddddd;fontSize=16;whiteSpace=wrap;rounded=0;" parent="1" vertex="1">
          <mxGeometry x="210" y="810" width="100" height="40" as="geometry" />
        </mxCell>
        <mxCell id="3d76a8aef4d5c911-53" value="Delete Template" style="html=1;shadow=0;dashed=0;shape=mxgraph.bootstrap.rrect;align=center;rSize=5;strokeColor=none;fillColor=#DB524C;fontColor=#ffffff;fontSize=16;whiteSpace=wrap;rounded=0;" parent="1" vertex="1">
          <mxGeometry x="670" y="810" width="170" height="40" as="geometry" />
        </mxCell>
        <mxCell id="3d76a8aef4d5c911-54" value="" style="html=1;shadow=0;dashed=0;shape=mxgraph.bootstrap.rrect;rSize=5;strokeColor=#dddddd;rounded=0;fontSize=12;align=center;" parent="1" vertex="1">
          <mxGeometry x="860" y="580" width="330" height="400" as="geometry" />
        </mxCell>
        <mxCell id="3d76a8aef4d5c911-55" value="320x200" style="shape=rect;fontSize=24;fillColor=#f0f0f0;strokeColor=none;fontColor=#999999;whiteSpace=wrap;" parent="3d76a8aef4d5c911-54" vertex="1">
          <mxGeometry x="5" y="5" width="320" height="200" as="geometry" />
        </mxCell>
        <mxCell id="3d76a8aef4d5c911-56" value="&lt;font style=&quot;font-size: 18px;&quot;&gt;ServiceNow Adiministration&lt;/font&gt;" style="html=1;shadow=0;dashed=0;shape=mxgraph.bootstrap.anchor;fontSize=26;align=left;whiteSpace=wrap;" parent="3d76a8aef4d5c911-54" vertex="1">
          <mxGeometry x="15" y="220" width="300" height="40" as="geometry" />
        </mxCell>
        <mxCell id="3d76a8aef4d5c911-57" value="Cras justo odio, dapibus ac facilisis in, egestas eget quam. Donec id elit non mi porta gravida at eget metus. Nullam id dolor id nibh ultricies vehicula ut id elit." style="html=1;shadow=0;dashed=0;shape=mxgraph.bootstrap.anchor;strokeColor=#dddddd;whiteSpace=wrap;align=left;verticalAlign=top;fontSize=14;whiteSpace=wrap;" parent="3d76a8aef4d5c911-54" vertex="1">
          <mxGeometry x="15" y="260" width="300" height="80" as="geometry" />
        </mxCell>
        <mxCell id="3d76a8aef4d5c911-58" value="Button" style="html=1;shadow=0;dashed=0;shape=mxgraph.bootstrap.rrect;rSize=5;fontSize=16;fillColor=#3D8BCD;strokeColor=none;fontColor=#ffffff;whiteSpace=wrap;" parent="3d76a8aef4d5c911-54" vertex="1">
          <mxGeometry y="1" width="80" height="40" relative="1" as="geometry">
            <mxPoint x="15" y="-60" as="offset" />
          </mxGeometry>
        </mxCell>
        <mxCell id="3d76a8aef4d5c911-59" value="Button" style="html=1;shadow=0;dashed=0;shape=mxgraph.bootstrap.rrect;rSize=5;fontSize=16;strokeColor=#dddddd;whiteSpace=wrap;" parent="3d76a8aef4d5c911-54" vertex="1">
          <mxGeometry y="1" width="80" height="40" relative="1" as="geometry">
            <mxPoint x="100" y="-60" as="offset" />
          </mxGeometry>
        </mxCell>
        <mxCell id="VjTXMUW79vmdp3_DpWTi-2" value="" style="rounded=1;whiteSpace=wrap;html=1;" vertex="1" parent="1">
          <mxGeometry x="295" y="1260" width="540" height="390" as="geometry" />
        </mxCell>
        <mxCell id="VjTXMUW79vmdp3_DpWTi-3" value="" style="html=1;shadow=0;dashed=0;shape=mxgraph.bootstrap.rect;fillColor=#222222;strokeColor=none;whiteSpace=wrap;rounded=0;fontSize=12;fontColor=#000000;align=center;" vertex="1" parent="1">
          <mxGeometry x="-10" y="1070" width="1150" height="40" as="geometry" />
        </mxCell>
        <mxCell id="VjTXMUW79vmdp3_DpWTi-4" value="Home" style="html=1;shadow=0;dashed=0;fillColor=none;strokeColor=none;shape=mxgraph.bootstrap.rect;fontColor=#999999;fontSize=14;whiteSpace=wrap;" vertex="1" parent="VjTXMUW79vmdp3_DpWTi-3">
          <mxGeometry width="115" height="40" as="geometry" />
        </mxCell>
        <mxCell id="VjTXMUW79vmdp3_DpWTi-5" value="Contact Me" style="html=1;shadow=0;dashed=0;shape=mxgraph.bootstrap.rect;fillColor=#000000;strokeColor=none;fontColor=#ffffff;spacingRight=30;whiteSpace=wrap;" vertex="1" parent="VjTXMUW79vmdp3_DpWTi-3">
          <mxGeometry x="115" width="129.375" height="40" as="geometry" />
        </mxCell>
        <mxCell id="VjTXMUW79vmdp3_DpWTi-6" value="&lt;div align=&quot;center&quot;&gt;&lt;span style=&quot;white-space: pre;&quot;&gt;&#x9;&lt;/span&gt;DFIR&lt;/div&gt;" style="html=1;shadow=0;dashed=0;fillColor=none;strokeColor=none;shape=mxgraph.bootstrap.rect;fontColor=#999999;spacingRight=30;whiteSpace=wrap;movable=1;resizable=1;rotatable=1;deletable=1;editable=1;locked=0;connectable=1;align=center;" vertex="1" parent="VjTXMUW79vmdp3_DpWTi-3">
          <mxGeometry x="248.13" width="121.87" height="40" as="geometry" />
        </mxCell>
        <mxCell id="VjTXMUW79vmdp3_DpWTi-7" value="ServiceNow" style="html=1;shadow=0;dashed=0;fillColor=none;strokeColor=none;shape=mxgraph.bootstrap.rect;fontColor=#999999;whiteSpace=wrap;" vertex="1" parent="VjTXMUW79vmdp3_DpWTi-3">
          <mxGeometry x="370" width="115" height="40" as="geometry" />
        </mxCell>
        <mxCell id="VjTXMUW79vmdp3_DpWTi-8" value="Art" style="html=1;shadow=0;dashed=0;fillColor=none;strokeColor=none;shape=mxgraph.bootstrap.rect;fontColor=#999999;whiteSpace=wrap;" vertex="1" parent="VjTXMUW79vmdp3_DpWTi-3">
          <mxGeometry x="490" width="100.625" height="40" as="geometry" />
        </mxCell>
        <mxCell id="VjTXMUW79vmdp3_DpWTi-9" value="Profile" style="html=1;shadow=0;dashed=0;fillColor=none;strokeColor=none;shape=mxgraph.bootstrap.rect;fontColor=#999999;whiteSpace=wrap;" vertex="1" parent="VjTXMUW79vmdp3_DpWTi-3">
          <mxGeometry x="948.75" width="100.625" height="40" as="geometry" />
        </mxCell>
        <mxCell id="VjTXMUW79vmdp3_DpWTi-10" value="Log Out" style="html=1;shadow=0;dashed=0;fillColor=none;strokeColor=none;shape=mxgraph.bootstrap.rect;fontColor=#999999;whiteSpace=wrap;" vertex="1" parent="VjTXMUW79vmdp3_DpWTi-3">
          <mxGeometry x="1049.375" width="100.625" height="40" as="geometry" />
        </mxCell>
        <mxCell id="VjTXMUW79vmdp3_DpWTi-11" value="" style="sketch=0;aspect=fixed;pointerEvents=1;shadow=0;dashed=0;html=1;strokeColor=none;labelPosition=center;verticalLabelPosition=bottom;verticalAlign=top;align=center;fillColor=#E6E6E6;shape=mxgraph.mscae.enterprise.calendar" vertex="1" parent="VjTXMUW79vmdp3_DpWTi-3">
          <mxGeometry x="210" y="9.5" width="25.61" height="21" as="geometry" />
        </mxCell>
        <mxCell id="VjTXMUW79vmdp3_DpWTi-17" value="&lt;h1 style=&quot;margin-top: 0px;&quot;&gt;Home Page&lt;br&gt;&lt;/h1&gt;&lt;p&gt;A Recruiter is lead to the &quot;Contact Me&quot; page. &lt;br&gt;&lt;/p&gt;" style="text;html=1;whiteSpace=wrap;overflow=hidden;rounded=0;" vertex="1" parent="1">
          <mxGeometry x="-390" y="1180" width="180" height="120" as="geometry" />
        </mxCell>
        <mxCell id="VjTXMUW79vmdp3_DpWTi-18" value="" style="edgeStyle=elbowEdgeStyle;elbow=horizontal;endArrow=classic;html=1;curved=0;rounded=0;endSize=8;startSize=8;exitX=0.456;exitY=0.992;exitDx=0;exitDy=0;exitPerimeter=0;" edge="1" parent="1" source="VjTXMUW79vmdp3_DpWTi-17" target="VjTXMUW79vmdp3_DpWTi-19">
          <mxGeometry width="50" height="50" relative="1" as="geometry">
            <mxPoint x="-310" y="1300" as="sourcePoint" />
            <mxPoint x="-260" y="1250" as="targetPoint" />
          </mxGeometry>
        </mxCell>
        <mxCell id="VjTXMUW79vmdp3_DpWTi-19" value="&lt;h1 style=&quot;margin-top: 0px;&quot;&gt;Enter your name&lt;br&gt;&lt;/h1&gt;&lt;p&gt;Loading page leads to a &quot;Login&quot; page to get the name and email or linkedin of the Recruiter&quot;. Identifying info is mandatory.&lt;br&gt;&lt;/p&gt;&lt;p&gt;&lt;br&gt;&lt;/p&gt;" style="text;html=1;whiteSpace=wrap;overflow=hidden;rounded=0;" vertex="1" parent="1">
          <mxGeometry x="-390" y="1350" width="180" height="150" as="geometry" />
        </mxCell>
        <mxCell id="VjTXMUW79vmdp3_DpWTi-20" value="" style="edgeStyle=segmentEdgeStyle;endArrow=classic;html=1;curved=0;rounded=0;endSize=8;startSize=8;" edge="1" parent="1" source="VjTXMUW79vmdp3_DpWTi-19" target="VjTXMUW79vmdp3_DpWTi-21">
          <mxGeometry width="50" height="50" relative="1" as="geometry">
            <mxPoint x="-325" y="1500" as="sourcePoint" />
            <mxPoint x="-275" y="1450" as="targetPoint" />
          </mxGeometry>
        </mxCell>
        <mxCell id="VjTXMUW79vmdp3_DpWTi-21" value="&lt;h1 style=&quot;margin-top: 0px;&quot;&gt;Heading&lt;/h1&gt;&lt;p&gt;Lorem ipsum dolor sit amet, consecte&lt;br&gt;&lt;/p&gt;" style="text;html=1;whiteSpace=wrap;overflow=hidden;rounded=0;" vertex="1" parent="1">
          <mxGeometry x="-510" y="1560" width="180" height="120" as="geometry" />
        </mxCell>
        <mxCell id="VjTXMUW79vmdp3_DpWTi-23" value="" style="sketch=0;html=1;aspect=fixed;strokeColor=none;shadow=0;fillColor=#3B8DF1;verticalAlign=top;labelPosition=center;verticalLabelPosition=bottom;shape=mxgraph.gcp2.loading_2" vertex="1" parent="1">
          <mxGeometry x="546.4" y="1170" width="37.2" height="40" as="geometry" />
        </mxCell>
        <mxCell id="VjTXMUW79vmdp3_DpWTi-24" value="&lt;font style=&quot;font-size: 18px;&quot;&gt;Name&lt;/font&gt;" style="strokeWidth=1;html=1;shadow=0;dashed=0;shape=mxgraph.ios.iTextInput;strokeColor=#444444;buttonText=;fontSize=8;whiteSpace=wrap;align=left;" vertex="1" parent="1">
          <mxGeometry x="336.5" y="1315" width="183.5" height="35" as="geometry" />
        </mxCell>
        <mxCell id="VjTXMUW79vmdp3_DpWTi-25" value="&lt;font style=&quot;font-size: 18px;&quot;&gt;LinkedIn&lt;/font&gt;" style="strokeWidth=1;html=1;shadow=0;dashed=0;shape=mxgraph.ios.iTextInput;strokeColor=#444444;buttonText=;fontSize=8;whiteSpace=wrap;align=left;" vertex="1" parent="1">
          <mxGeometry x="336.5" y="1390" width="183.5" height="35" as="geometry" />
        </mxCell>
        <mxCell id="VjTXMUW79vmdp3_DpWTi-26" value="&lt;font style=&quot;font-size: 18px;&quot;&gt;Email &lt;/font&gt;" style="strokeWidth=1;html=1;shadow=0;dashed=0;shape=mxgraph.ios.iTextInput;strokeColor=#444444;buttonText=;fontSize=8;whiteSpace=wrap;align=left;" vertex="1" parent="1">
          <mxGeometry x="336.5" y="1437.5" width="183.5" height="35" as="geometry" />
        </mxCell>
        <mxCell id="VjTXMUW79vmdp3_DpWTi-27" value="" style="shape=ellipse;labelPosition=right;align=left;strokeColor=none;fillColor=#B0B0B0;opacity=10;sketch=0;html=1;" vertex="1" parent="1">
          <mxGeometry x="295" y="1390" width="35.74" height="32" as="geometry" />
        </mxCell>
        <mxCell id="VjTXMUW79vmdp3_DpWTi-28" value="" style="dashed=0;labelPosition=right;align=left;shape=mxgraph.gmdl.radiobutton;strokeColor=#676767;fillColor=#676767;strokeWidth=2;sketch=0;html=1;" vertex="1" parent="VjTXMUW79vmdp3_DpWTi-27">
          <mxGeometry x="11.913333333333334" y="10.666666666666666" width="11.913333333333334" height="10.666666666666666" as="geometry" />
        </mxCell>
        <mxCell id="VjTXMUW79vmdp3_DpWTi-29" value="" style="dashed=0;labelPosition=right;align=left;shape=mxgraph.gmdl.radiobutton;strokeColor=#666666;fillColor=none;strokeWidth=2;aspect=fixed;sketch=0;html=1;" vertex="1" parent="1">
          <mxGeometry x="304.87" y="1447" width="16" height="16" as="geometry" />
        </mxCell>
        <mxCell id="VjTXMUW79vmdp3_DpWTi-30" value="" style="verticalLabelPosition=bottom;verticalAlign=top;html=1;shape=mxgraph.basic.6_point_star;fillColor=#CC0000;strokeColor=none;" vertex="1" parent="1">
          <mxGeometry x="440" y="1370" width="10" height="9" as="geometry" />
        </mxCell>
        <mxCell id="VjTXMUW79vmdp3_DpWTi-31" value="&lt;b&gt;Verify you exist&lt;/b&gt;" style="text;html=1;align=center;verticalAlign=middle;whiteSpace=wrap;rounded=0;" vertex="1" parent="1">
          <mxGeometry x="336.5" y="1360" width="103.5" height="30" as="geometry" />
        </mxCell>
        <mxCell id="VjTXMUW79vmdp3_DpWTi-32" value="Submit" style="rounded=1;fillColor=#0057D8;align=center;strokeColor=none;html=1;whiteSpace=wrap;fontColor=#ffffff;fontSize=12;sketch=0;" vertex="1" parent="1">
          <mxGeometry x="535" y="1570" width="80" height="33" as="geometry" />
        </mxCell>
        <mxCell id="VjTXMUW79vmdp3_DpWTi-33" value="" style="html=1;shadow=0;dashed=0;shape=mxgraph.atlassian.close;fillColor=#BA3200;strokeColor=none;html=1;sketch=0;" vertex="1" parent="1">
          <mxGeometry x="510" y="1579" width="14" height="14" as="geometry" />
        </mxCell>
        <mxCell id="VjTXMUW79vmdp3_DpWTi-34" value="Submit" style="rounded=1;align=center;fillColor=#F1F2F4;strokeColor=none;html=1;whiteSpace=wrap;fontColor=#596780;fontSize=12;sketch=0;" vertex="1" parent="1">
          <mxGeometry x="520" y="1527" width="115" height="33" as="geometry" />
        </mxCell>
        <mxCell id="VjTXMUW79vmdp3_DpWTi-35" value="" style="html=1;shadow=0;dashed=0;shape=mxgraph.atlassian.checkbox;fillColor=#008465;strokeColor=none;html=1;sketch=0;" vertex="1" parent="1">
          <mxGeometry x="495" y="1536" width="14" height="14" as="geometry" />
        </mxCell>
        <mxCell id="VjTXMUW79vmdp3_DpWTi-36" value="" style="edgeStyle=elbowEdgeStyle;elbow=horizontal;endArrow=classic;html=1;curved=0;rounded=0;endSize=8;startSize=8;" edge="1" parent="1">
          <mxGeometry width="50" height="50" relative="1" as="geometry">
            <mxPoint x="635" y="1550" as="sourcePoint" />
            <mxPoint x="930" y="1460" as="targetPoint" />
          </mxGeometry>
        </mxCell>
        <mxCell id="VjTXMUW79vmdp3_DpWTi-37" value="&lt;b&gt;Can&#39;t Be Selected if a verification method is not entered &lt;/b&gt;" style="text;html=1;align=center;verticalAlign=middle;whiteSpace=wrap;rounded=0;" vertex="1" parent="1">
          <mxGeometry x="940" y="1420" width="190" height="47.5" as="geometry" />
        </mxCell>
        <mxCell id="VjTXMUW79vmdp3_DpWTi-38" value="" style="edgeStyle=elbowEdgeStyle;elbow=horizontal;endArrow=classic;html=1;curved=0;rounded=0;endSize=8;startSize=8;" edge="1" parent="1">
          <mxGeometry width="50" height="50" relative="1" as="geometry">
            <mxPoint x="615" y="1593" as="sourcePoint" />
            <mxPoint x="970" y="1620" as="targetPoint" />
          </mxGeometry>
        </mxCell>
        <mxCell id="VjTXMUW79vmdp3_DpWTi-39" value="&lt;b&gt;Submit button turns blue when mandatory fields are filled.&lt;br&gt;&lt;/b&gt;" style="text;html=1;align=center;verticalAlign=middle;whiteSpace=wrap;rounded=0;" vertex="1" parent="1">
          <mxGeometry x="970" y="1593" width="190" height="47.5" as="geometry" />
        </mxCell>
        <mxCell id="VjTXMUW79vmdp3_DpWTi-40" value="" style="edgeStyle=elbowEdgeStyle;elbow=horizontal;endArrow=classic;html=1;curved=0;rounded=0;endSize=8;startSize=8;" edge="1" parent="1">
          <mxGeometry width="50" height="50" relative="1" as="geometry">
            <mxPoint x="460" y="1390" as="sourcePoint" />
            <mxPoint x="940" y="1301" as="targetPoint" />
          </mxGeometry>
        </mxCell>
      </root>
    </mxGraphModel>
  </diagram>
</mxfile>
